<?xml version="1.0" standalone="no"?>
<!DOCTYPE svg PUBLIC "-//W3C//DTD SVG 20010904//EN"
 "http://www.w3.org/TR/2001/REC-SVG-20010904/DTD/svg10.dtd">
<svg version="1.0" xmlns="http://www.w3.org/2000/svg"
 width="100.000000pt" height="100.000000pt" viewBox="0 0 100.000000 100.000000"
 preserveAspectRatio="xMidYMid meet">
<metadata>
Created by potrace 1.14, written by Peter Selinger 2001-2017
</metadata>
<g transform="translate(0.000000,100.000000) scale(0.100000,-0.100000)"
fill="#000000" stroke="none">
<path d="M120 571 l0 -351 38 0 c93 -1 249 -37 314 -71 15 -8 34 -6 77 9 118
42 205 60 294 61 l37 1 0 351 0 352 -77 -7 c-104 -8 -124 -13 -220 -45 -59
-19 -88 -24 -105 -18 -79 29 -199 57 -273 63 l-85 7 0 -352z m215 283 c33 -8
79 -22 103 -31 l42 -16 0 -308 0 -308 -42 15 c-85 30 -177 48 -270 54 -5 0 -8
139 -8 309 l0 310 58 -5 c31 -3 84 -12 117 -20z m505 -286 c0 -169 -3 -308 -7
-309 -5 0 -28 -2 -52 -4 -63 -6 -144 -24 -207 -45 l-54 -19 0 308 0 308 43 16
c61 23 116 37 167 44 25 3 47 7 48 8 2 2 17 3 33 3 l29 -1 0 -309z"/>
<path d="M40 480 l0 -340 43 -1 c23 -1 45 -1 49 0 8 1 141 -17 175 -23 44 -9
146 -38 166 -47 18 -8 37 -6 83 9 104 35 247 60 362 61 l42 1 0 340 c0 333 0
340 -20 340 -20 0 -20 -7 -20 -320 l0 -320 -27 -2 c-124 -6 -262 -31 -349 -62
-37 -13 -47 -12 -124 10 -45 13 -94 26 -109 29 -52 10 -161 22 -208 24 l-23 1
0 320 c0 313 0 320 -20 320 -20 0 -20 -7 -20 -340z"/>
</g>
</svg>
